<svg width="30" height="30" viewBox="0 0 30 30" fill="none" xmlns="http://www.w3.org/2000/svg">
<path d="M0.493978 27.1492L7.08211 20.5586C5.10678 17.9846 4.18454 14.7556 4.50249 11.5267C4.82044 8.29778 6.35476 5.31069 8.79421 3.17137C11.2337 1.03206 14.3956 -0.0992847 17.6385 0.00684469C20.8815 0.112974 23.9626 1.44863 26.257 3.74286C28.5513 6.0371 29.887 9.11812 29.9932 12.3609C30.0993 15.6037 28.9679 18.7655 26.8285 21.2048C24.6891 23.6441 21.7018 25.1784 18.4728 25.4963C15.2437 25.8143 12.0146 24.8921 9.44046 22.9168L2.84678 29.5116C2.69193 29.6664 2.5081 29.7893 2.30577 29.8731C2.10345 29.9569 1.8866 30 1.66761 30C1.44861 30 1.23176 29.9569 1.02944 29.8731C0.827117 29.7893 0.643282 29.6664 0.48843 29.5116C0.333579 29.3567 0.210743 29.1729 0.126938 28.9706C0.0431326 28.7683 -4.90672e-07 28.5515 -4.90672e-07 28.3325C-4.90672e-07 28.1135 0.0431326 27.8966 0.126938 27.6943C0.210743 27.492 0.333579 27.3082 0.48843 27.1533L0.493978 27.1492ZM26.6426 12.7903C26.6426 10.9246 26.0893 9.10081 25.0528 7.54957C24.0162 5.99832 22.5429 4.78928 20.8192 4.07532C19.0954 3.36136 17.1987 3.17455 15.3688 3.53853C13.5389 3.9025 11.858 4.8009 10.5387 6.12013C9.21944 7.43935 8.32099 9.12015 7.957 10.95C7.59301 12.7798 7.77983 14.6764 8.49382 16.4001C9.20781 18.1237 10.4169 19.597 11.9682 20.6335C13.5195 21.67 15.3434 22.2232 17.2092 22.2232C19.7103 22.2207 22.1082 21.226 23.8767 19.4575C25.6453 17.6891 26.64 15.2912 26.6426 12.7903Z" fill="#F4DFFF"/>
</svg>
