<svg width="25" height="25" viewBox="0 0 25 25" fill="none" xmlns="http://www.w3.org/2000/svg">
<path d="M15.2395 2.73507C15.2395 1.23346 14.015 0 12.5045 0C10.9939 0 9.76046 1.23346 9.7694 2.73507V9.7694H2.73507C1.23346 9.7694 0 10.9939 0 12.5045C0 14.0061 1.23346 15.2395 2.73507 15.2395H9.7694V22.2649C9.7694 23.7665 10.9939 25 12.5045 25C14.0061 25 15.2395 23.7755 15.2395 22.2649V15.2395H22.2649C23.7665 15.2395 25 14.015 25 12.5045C25 11.0029 23.7755 9.7694 22.2649 9.7694H15.2395V2.73507Z" fill="white"/>
</svg>
