<svg width="596" height="199" viewBox="0 0 596 199" fill="none" xmlns="http://www.w3.org/2000/svg">
<path d="M540.689 168.1V143.12H543.919V168.1H540.689ZM543.319 163.79L543.389 159.65L553.659 150.26H557.569L549.689 158L547.939 159.48L543.329 163.79H543.319ZM554.329 168.1L547.329 159.41L549.419 156.82L558.309 168.1H554.339H554.329Z" fill="#272727"/>
<path d="M527.119 168.1V150.25H530.219V155.1L529.919 153.89C530.409 152.66 531.239 151.71 532.409 151.06C533.579 150.41 535.009 150.08 536.719 150.08V153.21C536.589 153.19 536.459 153.18 536.329 153.18H535.979C534.249 153.18 532.879 153.7 531.869 154.73C530.859 155.76 530.349 157.26 530.349 159.21V168.1H527.119Z" fill="#272727"/>
<path d="M513.38 168.3C511.61 168.3 510.02 167.91 508.62 167.12C507.22 166.33 506.11 165.25 505.3 163.87C504.49 162.49 504.09 160.92 504.09 159.17C504.09 157.42 504.49 155.83 505.3 154.47C506.11 153.11 507.21 152.04 508.6 151.26C509.99 150.48 511.59 150.08 513.38 150.08C515.17 150.08 516.74 150.47 518.14 151.24C519.54 152.01 520.64 153.09 521.44 154.45C522.24 155.82 522.64 157.39 522.64 159.16C522.64 160.93 522.24 162.5 521.44 163.87C520.64 165.24 519.54 166.32 518.14 167.1C516.74 167.89 515.15 168.28 513.38 168.28V168.3ZM513.38 165.48C514.52 165.48 515.55 165.22 516.46 164.71C517.37 164.2 518.08 163.46 518.6 162.5C519.12 161.55 519.37 160.44 519.37 159.18C519.37 157.92 519.11 156.8 518.6 155.86C518.08 154.93 517.37 154.2 516.46 153.69C515.55 153.17 514.52 152.92 513.38 152.92C512.24 152.92 511.21 153.18 510.32 153.69C509.42 154.21 508.7 154.93 508.16 155.86C507.62 156.79 507.35 157.9 507.35 159.18C507.35 160.46 507.62 161.54 508.16 162.5C508.7 163.46 509.42 164.19 510.32 164.71C511.22 165.23 512.24 165.48 513.38 165.48Z" fill="#272727"/>
<path d="M479.749 168.1L473.119 150.25H476.179L482.069 166.41H480.619L486.749 150.25H489.479L495.469 166.41H494.049L500.079 150.25H502.979L496.309 168.1H493.209L487.589 153.35H488.529L482.839 168.1H479.739H479.749Z" fill="#272727"/>
<path d="M496.191 102.03C497.291 107.53 499.881 112.33 503.961 116.41C508.041 120.49 513.291 122.53 519.721 122.53C522.291 122.53 524.651 122.14 526.811 121.36C528.971 120.58 530.911 119.59 532.661 118.4C534.401 117.3 535.871 116.04 537.061 114.61C538.251 113.19 539.211 111.84 539.951 110.55H555.921C552.891 118.26 548.301 124.47 542.161 129.2C536.011 133.93 528.541 136.29 519.731 136.29C514.311 136.29 509.271 135.28 504.591 133.26C499.911 131.24 495.831 128.49 492.341 125C488.851 121.51 486.101 117.43 484.081 112.75C482.061 108.07 481.051 103.02 481.051 97.6099C481.051 92.1999 482.061 87.3999 484.081 82.6799C486.101 77.9599 488.851 73.8499 492.341 70.3599C495.831 66.8699 499.911 64.0999 504.591 62.0299C509.271 59.9699 514.311 58.9299 519.731 58.9299C524.221 58.9299 529.001 59.8699 534.041 61.7499C539.091 63.6299 543.541 66.4999 547.391 70.3499C551.061 73.9299 553.951 78.3499 556.061 83.6299C558.171 88.9099 558.811 95.0299 557.991 102H496.201L496.191 102.03ZM542.571 89.3699C541.101 84.2299 538.211 80.1999 533.901 77.2599C529.591 74.3199 524.861 72.8599 519.721 72.8599C514.221 72.8599 509.491 74.4899 505.541 77.7399C501.591 80.9999 498.801 84.8699 497.151 89.3699H542.571Z" fill="#272727"/>
<path d="M404.4 61.7L420.5 61.84V102.99C420.5 105.19 420.91 107.39 421.74 109.6C422.57 111.81 423.8 113.78 425.46 115.52C427.11 117.36 429.08 118.82 431.38 119.93C433.67 121.03 436.29 121.58 439.22 121.58C442.15 121.58 444.66 121.05 447 120C449.34 118.95 451.33 117.5 452.99 115.66C454.55 113.92 455.79 111.94 456.71 109.74C457.63 107.54 458.09 105.33 458.09 103.13V61.84L474.06 61.7V133.95H457.96V124.32C457.78 124.5 457.13 125.24 456.03 126.52C454.93 127.8 453.28 129.18 451.08 130.65C448.97 132.12 446.38 133.45 443.3 134.64C440.22 135.83 436.72 136.43 432.77 136.43C428.46 136.43 424.56 135.63 421.07 134.02C417.58 132.41 414.6 130.33 412.13 127.76C409.65 125.1 407.75 122.07 406.42 118.68C405.09 115.29 404.42 111.8 404.42 108.22V61.7H404.4Z" fill="#272727"/>
<path d="M397.941 133.68H381.841V91.7101C381.841 89.6001 381.401 87.4401 380.531 85.2401C379.661 83.0401 378.401 81.0701 376.751 79.3201C375.101 77.4901 373.131 76.0001 370.831 74.8501C368.531 73.7001 365.971 73.1301 363.121 73.1301C360.271 73.1301 357.551 73.6801 355.211 74.7801C352.871 75.8801 350.921 77.3001 349.361 79.0501C347.711 80.8901 346.451 82.8801 345.581 85.0401C344.711 87.2001 344.271 89.3701 344.271 91.5801V133.69H328.311V61.4301H344.411V71.0601C344.501 70.9701 345.101 70.2801 346.201 69.0001C347.301 67.7201 348.951 66.3001 351.161 64.7301C353.271 63.2601 355.861 61.9101 358.931 60.6701C362.001 59.4301 365.561 58.8101 369.601 58.8101C373.641 58.8101 377.671 59.6401 381.161 61.2901C384.651 62.9401 387.631 65.1001 390.111 67.7601C392.591 70.4201 394.511 73.4501 395.891 76.8401C397.271 80.2401 397.951 83.6801 397.951 87.1601V133.68H397.941Z" fill="#272727"/>
<path d="M258.8 102.03C259.9 107.53 262.49 112.33 266.58 116.41C270.66 120.49 275.91 122.53 282.34 122.53C284.91 122.53 287.27 122.14 289.43 121.36C291.59 120.58 293.54 119.59 295.28 118.4C297.02 117.3 298.49 116.04 299.68 114.61C300.87 113.19 301.83 111.84 302.57 110.55H318.54C315.51 118.26 310.92 124.47 304.78 129.2C298.63 133.93 291.16 136.29 282.35 136.29C276.94 136.29 271.89 135.28 267.21 133.26C262.53 131.24 258.45 128.49 254.96 125C251.47 121.51 248.72 117.43 246.7 112.75C244.68 108.07 243.67 103.02 243.67 97.6099C243.67 92.1999 244.68 87.3999 246.7 82.6799C248.72 77.9599 251.47 73.8499 254.96 70.3599C258.45 66.8699 262.53 64.0999 267.21 62.0299C271.89 59.9699 276.93 58.9299 282.35 58.9299C286.84 58.9299 291.62 59.8699 296.66 61.7499C301.71 63.6299 306.16 66.4999 310.01 70.3499C313.68 73.9299 316.57 78.3499 318.68 83.6299C320.79 88.9099 321.44 95.0299 320.61 102H258.82L258.8 102.03ZM305.18 89.3699C303.71 84.2299 300.82 80.1999 296.51 77.2599C292.2 74.3199 287.47 72.8599 282.34 72.8599C276.84 72.8599 272.11 74.4899 268.16 77.7399C264.21 80.9999 261.42 84.8699 259.77 89.3699H305.19H305.18Z" fill="#272727"/>
<path d="M192.189 61.4299L210.359 113.31L228.659 61.4299H246.409L218.609 133.82H202.229L174.289 61.4299H192.179H192.189Z" fill="#272727"/>
<path d="M147.751 92.9801L147.711 95.17C147.621 99.4 144.111 102.78 139.871 102.68H139.631L115.341 102.55L138.701 126.82C141.641 129.88 141.541 134.73 138.501 137.68L136.911 139.19C133.861 142.14 129.001 142.04 126.061 138.98L101.851 113.82L101.791 139.16C101.691 143.4 98.1905 146.76 93.9405 146.67L91.7605 146.62C87.5105 146.52 84.1605 143.02 84.2505 138.78L85.0305 102.37V102.31H84.7905L47.9805 102.27C43.7405 102.27 40.3105 98.8201 40.3105 94.5801V92.4001C40.3205 88.1501 43.7605 84.7201 48.0005 84.7301L72.8505 84.75L48.7205 60.4701C45.7405 57.4501 45.7505 52.6001 48.7605 49.6101L50.3205 48.0601C53.3205 45.0701 58.1805 45.09 61.1605 48.09L84.9705 72.06L85.1005 47.55C85.1205 44.56 86.8505 41.97 89.3505 40.73C89.5005 40.65 89.6605 40.58 89.8105 40.5C90.7905 40.05 91.8805 39.8 93.0205 39.8H95.2105C99.4405 39.82 102.881 43.25 102.861 47.5L102.831 72.2301L126.801 48.43C129.801 45.44 134.671 45.45 137.661 48.46L139.201 50.0201C142.181 53.0201 142.171 57.8901 139.161 60.8801L115.281 84.6101L140.251 85.14C144.481 85.24 147.841 88.7401 147.751 92.9801Z" fill="#551A94"/>
<path d="M102.271 84.6101L102.241 103L102.171 142.09C102.161 146.53 98.5507 150.14 94.1107 150.14H91.8207C87.3707 150.14 83.7707 146.53 83.7807 142.08L83.8307 116.03L58.3407 141.35C55.1907 144.48 50.0907 144.47 46.9607 141.32L45.3407 139.69C42.2107 136.54 42.2307 131.44 45.3907 128.3L70.8707 102.99H44.7507C40.3007 102.97 36.7107 99.3701 36.7207 94.9201V92.6301C36.7307 88.1801 40.3407 84.5801 44.7907 84.5901L83.8807 84.6101H102.271Z" fill="url(#paint0_linear_152_746)"/>
<defs>
<linearGradient id="paint0_linear_152_746" x1="71.6107" y1="82.6901" x2="67.4807" y2="148.63" gradientUnits="userSpaceOnUse">
<stop stop-color="#CBA8F0"/>
<stop offset="1" stop-color="#551A94"/>
</linearGradient>
</defs>
</svg>
