<svg width="112" height="111" viewBox="0 0 112 111" fill="none" xmlns="http://www.w3.org/2000/svg">
<path d="M111.03 53.18L110.99 55.37C110.9 59.6 107.39 62.98 103.15 62.88H102.91L78.6198 62.75L101.98 87.02C104.92 90.08 104.82 94.93 101.78 97.88L100.19 99.39C97.1398 102.34 92.2798 102.24 89.3398 99.18L65.1298 74.02L65.0698 99.36C64.9698 103.6 61.4698 106.96 57.2198 106.87L55.0398 106.82C50.7898 106.72 47.4398 103.22 47.5298 98.98L48.3098 62.57V62.51H48.0698L11.2598 62.47C7.01984 62.47 3.58984 59.02 3.58984 54.78V52.6C3.59984 48.35 7.03984 44.92 11.2798 44.93L36.1298 44.95L11.9998 20.67C9.01984 17.65 9.02984 12.8 12.0398 9.81L13.5998 8.26C16.5998 5.27 21.4598 5.29 24.4398 8.29L48.2498 32.26L48.3798 7.75C48.3998 4.76 50.1298 2.17 52.6298 0.93C52.7798 0.85 52.9398 0.780001 53.0898 0.700001C54.0698 0.250001 55.1598 0 56.2998 0H58.4898C62.7198 0.02 66.1598 3.45 66.1398 7.7L66.1098 32.43L90.0798 8.63C93.0798 5.64 97.9498 5.65 100.94 8.66L102.48 10.22C105.46 13.22 105.45 18.09 102.44 21.08L78.5598 44.81L103.53 45.34C107.76 45.44 111.12 48.94 111.03 53.18Z" fill="white"/>
<path d="M65.55 44.8101L65.52 63.2001L65.45 102.29C65.44 106.73 61.83 110.34 57.39 110.34H55.1C50.65 110.34 47.05 106.73 47.06 102.28L47.11 76.2301L21.62 101.55C18.47 104.68 13.37 104.67 10.24 101.52L8.62002 99.8901C5.49002 96.7401 5.51002 91.6401 8.67002 88.5001L34.15 63.1901H8.03002C3.58002 63.1701 -0.00997916 59.5701 2.08407e-05 55.1201V52.8301C0.0100208 48.3801 3.62002 44.7801 8.07002 44.7901L47.16 44.8101H65.55Z" fill="url(#paint0_linear_152_802)"/>
<defs>
<linearGradient id="paint0_linear_152_802" x1="34.89" y1="42.8901" x2="30.76" y2="108.83" gradientUnits="userSpaceOnUse">
<stop stop-color="#CBA8F0"/>
<stop offset="1" stop-color="#551A94"/>
</linearGradient>
</defs>
</svg>
